# xmcd
#
# Track frame offsets:
#	150
#	11653
#	29300
#	47730
#	64355
#	80366
#	101800
#	114460
#	133974
#	150972
#	168059
#	183030
#
# Disc length: 2633 seconds
# Revision: 0
# Processed by: cddbd v1.5.2PL0 Copyright (c) Steve Scherf et al.
# Submitted via: dBpowerAMP V12.0
#
DISCID=910a470c
DTITLE=Nothin' Fancy - Where I Came From
DYEAR=2016
DGENRE=Bluegrass
TTITLE0=Where I Came From
TTITLE1=Andersonville
TTITLE2=Friends and Lovers
TTITLE3=Bringing Mary Home
TTITLE4=Legend Of Long Mountain
TTITLE5=When I'm With You
TTITLE6=Lord Hear My Plea
TTITLE7=Bus Fare
TTITLE8=Daddy Made Moonshine
TTITLE9=To Lay My Weapon Down
TTITLE10=Simon Crutchfield's Grave
TTITLE11=The Hobo Song
EXTD=
EXTT0=
EXTT1=
EXTT2=
EXTT3=
EXTT4=
EXTT5=
EXTT6=
EXTT7=
EXTT8=
EXTT9=
EXTT10=
EXTT11=
PLAYORDER=
